<?xml version="1.0" encoding="UTF-8"?>
<!-- Generator: Adobe Illustrator 23.0.3, SVG Export Plug-In . SVG Version: 6.00 Build 0)  -->
<svg version="1.1" id="Layer_1" xmlns="http://www.w3.org/2000/svg" xmlns:xlink="http://www.w3.org/1999/xlink" x="0px" y="0px" viewBox="0 0 24 24" style="enable-background:new 0 0 24 24;" xml:space="preserve">
<style type="text/css">
	.st0{fill:#A70000;}
	.st1{fill:#00A7FF;}
	.st2{fill:#E1FF33;}
	.st3{fill:none;}
	.st4{fill:#002B7C;}
	.st5{fill:#FFFFFF;}
	.st6{fill:#722AB1;}
	.st7{fill:#005F58;}
	.st8{fill:#2CFF86;}
	.st9{fill:#FF7474;}
</style>
<rect class="st8" width="24" height="24"/>
<g>
	<path d="M11.996,10.491c-0.834,0-1.509,0.676-1.509,1.509c0,0.834,0.676,1.509,1.509,1.509s1.509-0.676,1.509-1.509   C13.506,11.166,12.83,10.491,11.996,10.491z"/>
	<path d="M14.192,6H9.8C7.701,6,6,7.701,6,9.8v4.393c0,2.099,1.701,3.8,3.8,3.8h4.393c2.099,0,3.8-1.701,3.8-3.8V9.8   C17.992,7.701,16.291,6,14.192,6z M15.992,14.192c0,0.992-0.807,1.8-1.8,1.8H9.8c-0.992,0-1.8-0.807-1.8-1.8V9.8   C8,8.807,8.807,8,9.8,8h4.393c0.992,0,1.8,0.807,1.8,1.8V14.192z"/>
</g>
</svg>