<?xml version="1.0" encoding="UTF-8"?>
<!-- Generator: Adobe Illustrator 23.0.3, SVG Export Plug-In . SVG Version: 6.00 Build 0)  -->
<svg version="1.1" id="Layer_1" xmlns="http://www.w3.org/2000/svg" xmlns:xlink="http://www.w3.org/1999/xlink" x="0px" y="0px" viewBox="0 0 24 24" style="enable-background:new 0 0 24 24;" xml:space="preserve">
<style type="text/css">
	.st0{fill:#A70000;}
	.st1{fill:#00A7FF;}
	.st2{fill:#E1FF33;}
	.st3{fill:none;}
	.st4{fill:#002B7C;}
	.st5{fill:#FFFFFF;}
	.st6{fill:#722AB1;}
	.st7{fill:#005F58;}
	.st8{fill:#2CFF86;}
	.st9{fill:#FF7474;}
</style>
<rect class="st2" width="24" height="24"/>
<g>
	<path d="M8.951,15.784c-0.611,0-1.106,0.495-1.106,1.106s0.495,1.106,1.106,1.106s1.106-0.495,1.106-1.106   S9.562,15.784,8.951,15.784z"/>
	<circle cx="14.939" cy="16.889" r="1.106"/>
	<path d="M16.023,12.771H7.977c-0.414,0-0.75,0.336-0.75,0.75s0.336,0.75,0.75,0.75h8.046c0.414,0,0.75-0.336,0.75-0.75   S16.437,12.771,16.023,12.771z"/>
	<rect x="10.986" y="5.996" width="1.5" height="5.25"/>
	<rect x="7.946" y="5.999" width="1.5" height="5.249"/>
	<rect x="14.076" y="5.932" transform="matrix(0.9384 -0.3454 0.3454 0.9384 -2.0553 5.65)" width="1.5" height="5.321"/>
</g>
</svg>