<?xml version="1.0" encoding="utf-8"?>
<!-- Generator: Adobe Illustrator 23.0.3, SVG Export Plug-In . SVG Version: 6.00 Build 0)  -->
<svg version="1.1" id="Layer_1" xmlns="http://www.w3.org/2000/svg" xmlns:xlink="http://www.w3.org/1999/xlink" x="0px" y="0px"
	 viewBox="0 0 24 24" style="enable-background:new 0 0 24 24;" xml:space="preserve">
<style type="text/css">
	.st0{fill:#00A7FF;}
	.st1{fill:url(#SVGID_1_);}
	.st2{fill:url(#SVGID_2_);}
	.st3{fill:url(#SVGID_3_);}
	.st4{fill:url(#SVGID_4_);}
	.st5{fill:url(#SVGID_5_);}
</style>
<path class="st0" d="M0,0v24h24V0H0z"/>
<g>
	<g>
		<linearGradient id="SVGID_1_" gradientUnits="userSpaceOnUse" x1="6.8874" y1="17.4829" x2="12.9306" y2="11.3858">
			<stop  offset="0" style="stop-color:#7D5C48"/>
			<stop  offset="1" style="stop-color:#96704B"/>
		</linearGradient>
		<path class="st1" d="M12.003,13.45L12.003,13.45L12,13.452l-5.232-3.021c-0.038,0.066-0.06,0.142-0.06,0.221v5.601
			c0,0.157,0.085,0.304,0.221,0.383l4.854,2.802c0.068,0.039,0.144,0.058,0.22,0.059V13.45L12.003,13.45z"/>
		<linearGradient id="SVGID_2_" gradientUnits="userSpaceOnUse" x1="14.6498" y1="18.6282" x2="14.6498" y2="10.0741">
			<stop  offset="0" style="stop-color:#714D37"/>
			<stop  offset="1" style="stop-color:#633C14"/>
		</linearGradient>
		<path class="st2" d="M12.003,13.45v6.045c0.076,0,0.153-0.019,0.221-0.059l4.853-2.802c0.136-0.079,0.221-0.226,0.221-0.383
			v-5.604c0-0.079-0.021-0.155-0.06-0.221L12.003,13.45L12.003,13.45z"/>
		<linearGradient id="SVGID_3_" gradientUnits="userSpaceOnUse" x1="9.3846" y1="13.4484" x2="9.3846" y2="6.7545">
			<stop  offset="0" style="stop-color:#291707"/>
			<stop  offset="1" style="stop-color:#94693E"/>
		</linearGradient>
		<path class="st3" d="M6.929,10.269c-0.067,0.039-0.121,0.095-0.159,0.16l5.23,3.02V7.404c-0.077,0-0.153,0.02-0.221,0.059
			L6.929,10.269z"/>
		<linearGradient id="SVGID_4_" gradientUnits="userSpaceOnUse" x1="14.6185" y1="13.45" x2="14.6185" y2="6.7561">
			<stop  offset="0" style="stop-color:#2B1708"/>
			<stop  offset="1" style="stop-color:#AB8A74"/>
		</linearGradient>
		<path class="st4" d="M12.003,13.45l5.235-3.022c-0.038-0.066-0.093-0.123-0.161-0.162l-4.855-2.803
			C12.152,7.424,12.076,7.404,12,7.404c0,0,0,0,0,0v6.044L12.003,13.45z"/>
	</g>
	<g>
		<g>
			<g>
				<linearGradient id="SVGID_5_" gradientUnits="userSpaceOnUse" x1="12.0026" y1="10.3194" x2="12.0026" y2="4.0899">
					<stop  offset="0" style="stop-color:#A68564"/>
					<stop  offset="1" style="stop-color:#917462"/>
				</linearGradient>
				<path class="st5" d="M17.072,6.976l-4.937-2.85c-0.082-0.047-0.183-0.047-0.264,0l-4.937,2.85c-0.176,0.102-0.176,0.356,0,0.458
					l4.937,2.85c0.082,0.047,0.183,0.047,0.264,0l4.937-2.85C17.248,7.332,17.248,7.077,17.072,6.976z"/>
			</g>
		</g>
	</g>
</g>
</svg>
